<?xml version="1.0" encoding="UTF-8" standalone="no"?>
<!-- generated by Grace-5.1.22 -->

<svg
   xmlns:dc="http://purl.org/dc/elements/1.1/"
   xmlns:cc="http://creativecommons.org/ns#"
   xmlns:rdf="http://www.w3.org/1999/02/22-rdf-syntax-ns#"
   xmlns:svg="http://www.w3.org/2000/svg"
   xmlns="http://www.w3.org/2000/svg"
   xmlns:sodipodi="http://sodipodi.sourceforge.net/DTD/sodipodi-0.dtd"
   xmlns:inkscape="http://www.inkscape.org/namespaces/inkscape"
   xml:space="preserve"
   width="480"
   height="480"
   viewBox="0 0 384 384"
   id="svg2"
   version="1.1"
   inkscape:version="0.47 r22583"
   sodipodi:docname="fid.svg"
   style="display:inline"><metadata
   id="metadata36"><rdf:RDF><cc:Work
       rdf:about=""><dc:format>image/svg+xml</dc:format><dc:type
         rdf:resource="http://purl.org/dc/dcmitype/StillImage" /></cc:Work></rdf:RDF></metadata><defs
   id="defs34"><inkscape:perspective
   sodipodi:type="inkscape:persp3d"
   inkscape:vp_x="0 : 382.5 : 1"
   inkscape:vp_y="0 : 1000 : 0"
   inkscape:vp_z="990 : 382.5 : 1"
   inkscape:persp3d-origin="495 : 255 : 1"
   id="perspective38" />
  
  
  
  
  
 
   
   
   
  
   
   
  </defs><sodipodi:namedview
   pagecolor="#ffffff"
   bordercolor="#666666"
   borderopacity="1"
   objecttolerance="10"
   gridtolerance="10"
   guidetolerance="10"
   inkscape:pageopacity="0"
   inkscape:pageshadow="2"
   inkscape:window-width="1396"
   inkscape:window-height="981"
   id="namedview32"
   showgrid="true"
   inkscape:zoom="1"
   inkscape:cx="264.80229"
   inkscape:cy="211.72375"
   inkscape:window-x="-1"
   inkscape:window-y="-3"
   inkscape:window-maximized="1"
   inkscape:current-layer="layer3"
   inkscape:object-paths="true"><inkscape:grid
     type="xygrid"
     id="grid3645"
     empspacing="5"
     visible="true"
     enabled="true"
     snapvisiblegridlinesonly="true" /></sodipodi:namedview>
 
<g
   inkscape:groupmode="layer"
   id="layer1"
   inkscape:label="axes"
   style="display:inline"
   sodipodi:insensitive="true"><path
     style="fill:none;stroke:#000000;stroke-width:4;stroke-linecap:butt;stroke-linejoin:miter;stroke-miterlimit:4;stroke-dasharray:none"
     d="m 4,192 380.2559,0"
     id="path28"
     sodipodi:nodetypes="cc" /><path
     style="fill:none;stroke:#000000;stroke-width:4;stroke-linecap:butt;stroke-linejoin:miter;stroke-miterlimit:4;stroke-dasharray:none"
     d="M 4,384 4,0"
     id="path30"
     sodipodi:nodetypes="cc" /></g><g
   inkscape:groupmode="layer"
   id="layer3"
   inkscape:label="envelope"
   style="display:inline"><path
     style="fill:none;stroke:#ff2300;stroke-width:8;stroke-linecap:butt;stroke-linejoin:miter;stroke-dasharray:32, 8;stroke-opacity:1;stroke-miterlimit:4;stroke-dashoffset:0"
     d="m 4,4 0.6654464,1.8538305 0.6653595,1.8354085 0.6654464,1.8171605 0.6654464,1.7989985 0.6653595,1.781186 0.6654464,1.763372 0.6654464,1.745733 0.6653595,1.72844 0.6654464,1.711234 0.6654461,1.694117 0.66536,1.677345 0.665446,1.660575 0.665447,1.643978 0.665359,1.627728 0.665446,1.611391 0.665447,1.595403 0.665359,1.579501 0.665447,1.56386 0.665359,1.548132 0.665447,1.532838 0.665446,1.517458 0.66536,1.502425 0.665446,1.487478 0.665446,1.47262 0.66536,1.457934 0.665446,1.443422 0.665447,1.429085 0.665359,1.414834 0.665447,1.400757 0.665446,1.386767 0.665359,1.37295 0.665447,1.359308 0.665446,1.345751 0.66536,1.33237 0.665446,1.319075 0.665447,1.305954 0.665359,1.29292 0.665446,1.280059 0.665447,1.267285 0.665359,1.254685 0.665447,1.242173 0.665446,1.229833 0.66536,1.217581 0.665446,1.205415 0.665446,1.193511 0.66536,1.181519 0.665446,1.169789 0.665447,1.158144 0.665359,1.146587 0.665447,1.135117 0.665446,1.123908 0.66536,1.112698 0.665446,1.101575 0.665446,1.090627 0.66536,1.079764 0.665446,1.06899 0.66536,1.058301 0.665446,1.047874 0.665446,1.03736 0.66536,1.027019 0.665446,1.016852 0.665447,1.006685 0.665359,0.996692 0.665447,0.9867 0.665446,0.97688 0.66536,0.967235 0.665446,0.957502 0.665446,0.948031 0.66536,0.938559 0.665446,0.929175 0.665447,0.919963 0.665359,0.91084 0.665447,0.901713 0.665446,0.89277 0.665359,0.88381 0.665447,0.87504 0.665446,0.86635 0.66536,0.85775 0.665446,0.84914 0.665447,0.84072 0.665359,0.83228 0.665446,0.82403 0.665447,0.81587 0.665359,0.80769 0.665447,0.7997 0.665446,0.79171 0.66536,0.78379 0.665446,0.77598 0.665446,0.76833 0.66536,0.7606 0.665446,0.75304 0.665447,0.74556 0.665359,0.73809 0.665447,0.73079 0.665359,0.7235 0.665447,0.71628 0.665446,0.70915 0.665359,0.70212 0.665447,0.69508 0.665446,0.68821 0.66536,0.68126 0.665446,0.67457 0.665447,0.66779 0.665359,0.66119 0.665446,0.65459 0.665447,0.64806 0.665359,0.64155 0.665447,0.63521 0.665446,0.62895 0.66536,0.62261 0.665446,0.61644 0.665446,0.61026 0.66536,0.60419 0.665446,0.59819 0.665447,0.59219 0.665359,0.58637 0.665447,0.58046 0.665446,0.57473 0.66536,0.56899 0.665446,0.56335 0.665446,0.55769 0.66536,0.55214 0.665446,0.54666 0.665447,0.54118 0.665359,0.5358 0.665447,0.5305 0.665446,0.5252 0.665359,0.51998 0.665447,0.51477 0.665359,0.50964 0.665447,0.50461 0.665446,0.49956 0.66536,0.49452 0.665446,0.48966 0.665446,0.48479 0.66536,0.48001 0.665446,0.47514 0.665447,0.47046 0.665359,0.46576 0.665447,0.46107 0.665446,0.45654 0.66536,0.45195 0.665446,0.44751 0.665446,0.44299 0.665357,0.43857 0.66545,0.43421 0.66545,0.42996 0.66536,0.42562 0.66544,0.42135 0.66545,0.41719 0.66536,0.4131 0.66545,0.40885 0.66544,0.40484 0.66536,0.40085 0.66545,0.39685 0.66545,0.39286 0.66536,0.38894 0.66544,0.38512 0.66545,0.38122 0.66536,0.37747 0.66544,0.37365 0.66545,0.37 0.66536,0.36627 0.66545,0.36261 0.66544,0.35905 0.66536,0.35541 0.66545,0.35192 0.66544,0.34846 0.66536,0.34488 0.66545,0.3415 0.66536,0.33812 0.66545,0.33472 0.66544,0.33142 0.66536,0.32811 0.66545,0.32482 0.66545,0.3216 0.66535,0.31839 0.66545,0.31517 0.66545,0.31213 0.66536,0.30891 0.66544,0.30587 0.66545,0.30292 0.66536,0.29979 0.66545,0.29683 0.66544,0.29389 0.66536,0.29092 0.66545,0.28815 0.66544,0.28519 0.66536,0.28232 0.66545,0.27955 0.66545,0.27676 0.66536,0.27398 0.66544,0.27129 0.66545,0.26851 0.66536,0.2659 0.66544,0.26329 0.66545,0.2606 0.66536,0.25799 0.66545,0.25548 0.66544,0.25295 0.66536,0.25034 0.66545,0.24792 0.66536,0.24539 0.66545,0.24305 0.66544,0.24053 0.66545,0.23818 0.66536,0.23583 0.66544,0.2334 0.66536,0.23114 0.66545,0.2288 0.66545,0.22654 0.66536,0.22427 0.66544,0.22211 0.66545,0.21985 0.66536,0.21758 0.66544,0.2155 0.66545,0.21333 0.66536,0.21124 0.66545,0.20908 0.66544,0.20707 0.66536,0.2049 0.66545,0.20299 0.66545,0.2009 0.66536,0.1989 0.66544,0.19691 0.66545,0.1949 0.66536,0.19309 0.66544,0.19108 0.66545,0.18917 0.66536,0.18726 0.66545,0.18544 0.66544,0.18361 0.66536,0.18178 0.66545,0.17996 0.66544,0.17814 0.66536,0.1764 0.66545,0.17466 0.66545,0.17283 0.66536,0.17119 0.66544,0.16944 0.66536,0.1678 0.66545,0.16614 0.66545,0.16441 0.66535,0.16284 0.66545,0.16119 0.66545,0.15954 0.66536,0.15807 0.66544,0.15641 0.66545,0.15485 0.66536,0.15328 0.66545,0.15181 0.66544,0.15033 0.66536,0.14876 0.66545,0.14729 0.66544,0.14581 0.66536,0.14442 0.66545,0.14294 0.66545,0.14156 0.66536,0.14007 0.66544,0.13878 0.66545,0.13729 0.66536,0.13599 0.66544,0.1346 0.66545,0.1333 0.66536,0.13191 0.66545,0.1306 0.66544,0.12939 0.66536,0.128 0.66545,0.12678 0.66545,0.12548 0.66536,0.12426 0.66544,0.12304 0.66545,0.12183 0.66536,0.12052 0.66544,0.1194 0.66545,0.11817 0.66536,0.11705 0.66545,0.11583 0.66536,0.11471 0.66544,0.11348 0.66545,0.11245 0.66536,0.11131 0.66544,0.11018 0.66545,0.10906 0.66536,0.10801 0.66545,0.10697 0.66544,0.10583 0.66536,0.1048 0.66545,0.10384 0.66545,0.10271 0.66536,0.10167 0.66544,0.10071 0.66545,0.0998 0.66536,0.0986 0.66544,0.0978 0.66545,0.0967 0.66536,0.0958 0.66545,0.0948 0.66544,0.0938 0.66536,0.093 0.66545,0.092 0.66544,0.0911 0.66536,0.0902 0.66545,0.0893 0.66545,0.0884 0.66536,0.0876 0.66544,0.0866 0.66545,0.0858 0.66536,0.085 0.66545,0.0841 0.66544,0.0832 0.66536,0.0824 0.66545,0.0816 0.66536,0.0808 0.66544,0.08 0.66545,0.0792 0.66536,0.0784 0.66545,0.0777 0.66544,0.0768 0.66536,0.0761 0.66545,0.0753 0.66544,0.0746 0.66536,0.0738 0.66545,0.0732 0.66545,0.0723 0.66536,0.0717 0.66544,0.0709 0.66545,0.0702 0.66536,0.0696 0.66544,0.0688 0.66545,0.0681 0.66536,0.0675 0.66545,0.0667 0.66544,0.0661 0.66536,0.0655 0.66545,0.0648 0.66545,0.0641 0.66536,0.0636 0.66544,0.0629 0.66545,0.0622 0.66536,0.0617 0.66544,0.061 0.66545,0.0605 0.66536,0.0599 0.66545,0.0592 0.66544,0.0587 0.66536,0.058 0.66545,0.0575 0.66545,0.0569 0.66535,0.0563 0.66545,0.0558 0.66536,0.0553 0.66545,0.0547 0.66544,0.0541 0.66545,0.0536 0.66536,0.0531 0.66545,0.0525 0.66536,0.0521 0.66544,0.0514 0.66545,0.051 0.66536,0.0505 0.66544,0.05 0.66545,0.0494 0.66536,0.049 0.66545,0.0485 0.66544,0.048 0.66536,0.0475 0.66545,0.047 0.66544,0.0466 0.66536,0.0461 0.66545,0.0456 0.66545,0.0453 0.66536,0.0448 0.66544,0.0443 0.66545,0.0439 0.66536,0.0435 0.66545,0.0429 0.66544,0.0426 0.66536,0.0421 0.66545,0.0418 0.66544,0.0413 0.66536,0.0409 0.66545,0.0405 0.66545,0.0401 0.66536,0.0397 0.66544,0.0393 0.66545,0.0389 0.66536,0.0385 0.66544,0.0381 0.66536,0.0378 0.66545,0.0374 0.66545,0.037 0.66536,0.0366 0.66544,0.0363 0.66545,0.0359 0.66536,0.0355 0.66544,0.0352 0.66545,0.0349 0.66536,0.0345 0.66545,0.0341 0.66544,0.0338 0.66536,0.0335 0.66545,0.0332 0.66545,0.0328 0.66536,0.0325 0.66544,0.0322 0.66545,0.0319 0.66536,0.0315 0.66544,0.0312 0.66545,0.0309 0.66536,0.0306 0.66545,0.0302 0.66544,0.0301 0.66536,0.0296 0.66545,0.0295 0.66545,0.0291 0.66535,0.0288 0.66545,0.0285 0.66545,0.0282 0.66536,0.028 0.66544,0.0277 0.66545,0.0274 0.66536,0.0271 0.66545,0.0269 0.66544,0.0266 0.66536,0.0263 0.66545,0.0261 0.66536,0.0258 0.66544,0.0255 0.66545,0.0253 0.66536,0.025 0.66545,0.0248 0.66544,0.0245 0.66536,0.0243 0.66545,0.0241 0.66544,0.0238 0.66536,0.0236 0.66545,0.0234 0.66545,0.0231 0.66536,0.0229 0.66544,0.0226 0.66545,0.0224 0.66536,0.0222 0.66545,0.022 0.66544,0.0218 0.66536,0.0216 0.66545,0.0213 0.66544,0.0211 0.66536,0.0209 0.66545,0.0207 0.66545,0.0205 0.66536,0.0203 0.66544,0.0201 0.66545,0.0199 0.66536,0.0197 0.66544,0.0195 0.66545,0.0194 0.66536,0.019 0.66545,0.0189 0.66544,0.0188 0.66536,0.0185 0.66545,0.0184 0.66536,0.0182 0.66545,0.018 0.66544,0.0178 0.66536,0.0176 0.66545,0.0175 0.66544,0.0173 0.66536,0.0171 0.66545,0.0169 0.66545,0.0168 0.66536,0.0167 0.66544,0.0164 0.66545,0.0163 0.66536,0.0162 0.66544,0.016 0.66545,0.0158 0.66536,0.0156 0.66545,0.0155 0.66544,0.0153 0.66536,0.0152 0.66545,0.015 0.66545,0.0149 0.66535,0.0148 0.66545,0.0146 0.66545,0.0144 0.66536,0.0143 0.66544,0.0141 0.66545,0.0141 0.66536,0.0138 0.66545,0.0138 0.66544,0.0136 0.66536,0.0135 0.66545,0.0133 0.66544,0.0132 0.66536,0.0131 0.66545,0.013 0.66545,0.0128 0.66536,0.0127 0.66544,0.0125 0.66536,0.0124 0.66545,0.0123 0.66544,0.0122 0.66536,0.0121 0.66545,0.0119 0.66545,0.0118 0.66536,0.0117 0.66544,0.0116 0.66545,0.0115 0.66536,0.0113 0.66545,0.0113 0.66544,0.0111 0.66536,0.011 0.66545,0.0109 0.66544,0.0109 0.66536,0.0107 0.66545,0.0106 0.66545,0.0104 0.66536,0.0104 0.66544,0.0103 0.66545,0.0102 0.66536,0.0101 0.66544,0.01 0.66545,0.01 0.66536,0.01 0.66545,0.01 0.66544,0.01 0.66536,0.01 0.66545,0.009 0.66545,0.009 0.66536,0.009 0.66544,0.009 0.66545,0.009 0.66536,0.009 0.66544,0.009 0.66545,0.009 0.66536,0.009 0.66545,0.009 0.66536,0.009 0.66544,0.009 0.66545,0.009 0.66536,0.009 0.66544,0.008 0.66545,0.008 0.66536,0.008 0.66545,0.008 0.66544,0.008 0.66536,0.008 0.66545,0.008 0.66545,0.008 0.66535,0.008 0.66545,0.008 0.66545,0.007 0.66536,0.007 0.66544,0.007 0.66545,0.007 0.66536,0.007 0.66545,0.007 0.66544,0.007 0.66536,0.007 0.66545,0.007 0.66544,0.007 0.66536,0.007 0.66545,0.007 0.66545,0.007 0.66536,0.006 0.66544,0.006 0.66545,0.006 0.66536,0.006 0.66544,0.006 0.66545,0.006"
     id="path12"
     sodipodi:nodetypes="cccccccccccccccccccccccccccccccccccccccccccccccccccccccccccccccccccccccccccccccccccccccccccccccccccccccccccccccccccccccccccccccccccccccccccccccccccccccccccccccccccccccccccccccccccccccccccccccccccccccccccccccccccccccccccccccccccccccccccccccccccccccccccccccccccccccccccccccccccccccccccccccccccccccccccccccccccccccccccccccccccccccccccccccccccccccccccccccccccccccccccccccccccccccccccccccccccccccccccccccccccccccccccccccccccccccccccccccccccccccccccccccccccccccccccccccccccccccccccccccccccccccccccccccccccccccccccccccccccccccccccccccccccccccccccccccccccccccccccccccccccccccccccc" /><path
     style="fill:none;stroke:#ff2300;stroke-width:8;stroke-linecap:butt;stroke-linejoin:miter;stroke-dasharray:32, 8;display:inline;stroke-opacity:1;stroke-miterlimit:4;stroke-dashoffset:0"
     d="m 4,378.4 0.6654464,-1.85383 0.6653595,-1.83541 0.6654464,-1.81716 0.6654464,-1.799 0.6653595,-1.78118 0.6654464,-1.76337 0.6654464,-1.74574 0.665359,-1.72844 0.665447,-1.71123 0.665446,-1.69412 0.66536,-1.67734 0.665446,-1.66058 0.665447,-1.64398 0.665359,-1.62772 0.665446,-1.6114 0.665447,-1.5954 0.665359,-1.5795 0.665447,-1.56386 0.665359,-1.54813 0.665447,-1.53284 0.665446,-1.51746 0.66536,-1.50242 0.665446,-1.48748 0.665446,-1.47262 0.66536,-1.45793 0.665446,-1.44343 0.665447,-1.42908 0.665359,-1.41484 0.665447,-1.40075 0.665446,-1.38677 0.665359,-1.37295 0.665447,-1.35931 0.665446,-1.34575 0.66536,-1.33237 0.665446,-1.31907 0.665447,-1.30596 0.665359,-1.29292 0.665446,-1.28006 0.665447,-1.26728 0.665359,-1.25469 0.665447,-1.24217 0.665446,-1.22983 0.66536,-1.21758 0.665446,-1.20542 0.665446,-1.19351 0.66536,-1.18152 0.665446,-1.16979 0.665447,-1.15814 0.665359,-1.14659 0.665447,-1.13512 0.665446,-1.1239 0.66536,-1.1127 0.665446,-1.10158 0.665446,-1.09062 0.66536,-1.07977 0.665446,-1.06899 0.66536,-1.0583 0.665446,-1.04787 0.665446,-1.03736 0.66536,-1.02702 0.665446,-1.01685 0.665447,-1.00669 0.665359,-0.99669 0.665447,-0.9867 0.665446,-0.97688 0.66536,-0.96724 0.665446,-0.9575 0.665446,-0.94803 0.66536,-0.93856 0.665446,-0.92917 0.665447,-0.91997 0.665359,-0.91084 0.665447,-0.90171 0.665446,-0.89277 0.665359,-0.88381 0.665447,-0.87504 0.665446,-0.86635 0.66536,-0.85774 0.665446,-0.84915 0.665447,-0.84071 0.665359,-0.83229 0.665446,-0.82403 0.665447,-0.81586 0.665359,-0.8077 0.665447,-0.7997 0.665446,-0.7917 0.66536,-0.7838 0.665446,-0.77598 0.665446,-0.76833 0.66536,-0.7606 0.665446,-0.75303 0.665447,-0.74557 0.665359,-0.73809 0.665447,-0.73079 0.665359,-0.72349 0.665447,-0.71628 0.665446,-0.70916 0.665359,-0.70211 0.665447,-0.69508 0.665446,-0.68822 0.66536,-0.68126 0.665446,-0.67457 0.665447,-0.66779 0.665359,-0.66119 0.665446,-0.65458 0.665447,-0.64807 0.665359,-0.64155 0.665447,-0.63521 0.665446,-0.62895 0.66536,-0.6226 0.665446,-0.61644 0.665446,-0.61027 0.66536,-0.60418 0.665446,-0.59819 0.665447,-0.5922 0.665359,-0.58637 0.665447,-0.58046 0.665446,-0.57473 0.66536,-0.56899 0.665446,-0.56334 0.665446,-0.5577 0.66536,-0.55214 0.665446,-0.54666 0.665447,-0.54118 0.665359,-0.5358 0.665447,-0.5305 0.665446,-0.52519 0.665359,-0.51999 0.665447,-0.51477 0.665359,-0.50964 0.665447,-0.5046 0.665446,-0.49956 0.66536,-0.49453 0.665446,-0.48965 0.665446,-0.48479 0.66536,-0.48002 0.665446,-0.47514 0.665447,-0.47045 0.665359,-0.46576 0.665447,-0.46107 0.665446,-0.45655 0.665359,-0.45194 0.66545,-0.44752 0.66544,-0.44299 0.66536,-0.43856 0.66545,-0.43422 0.66545,-0.42996 0.66536,-0.42561 0.66544,-0.42136 0.66545,-0.41719 0.66536,-0.4131 0.66545,-0.40884 0.66544,-0.40485 0.66536,-0.40085 0.66545,-0.39685 0.66545,-0.39285 0.66536,-0.38895 0.66544,-0.38512 0.66545,-0.38121 0.66536,-0.37748 0.66544,-0.37365 0.66545,-0.37 0.66536,-0.36626 0.66545,-0.36262 0.66544,-0.35905 0.66536,-0.3554 0.66545,-0.35193 0.66544,-0.34845 0.66536,-0.34489 0.66545,-0.3415 0.66536,-0.33811 0.66545,-0.33472 0.66544,-0.33142 0.66536,-0.32812 0.66545,-0.32482 0.66545,-0.3216 0.66535,-0.31838 0.66545,-0.31517 0.66545,-0.31213 0.66536,-0.30892 0.66544,-0.30587 0.66545,-0.30292 0.66536,-0.29979 0.66545,-0.29683 0.66544,-0.29388 0.66536,-0.29093 0.66545,-0.28814 0.66544,-0.2852 0.66536,-0.28232 0.66545,-0.27954 0.66545,-0.27676 0.66536,-0.27399 0.66544,-0.27128 0.66545,-0.26851 0.66536,-0.2659 0.66544,-0.2633 0.66545,-0.2606 0.66536,-0.25799 0.66545,-0.25547 0.66544,-0.25295 0.66536,-0.25035 0.66545,-0.24791 0.66536,-0.2454 0.66545,-0.24304 0.66544,-0.24053 0.66545,-0.23818 0.66536,-0.23584 0.66544,-0.2334 0.66536,-0.23114 0.66545,-0.2288 0.66545,-0.22653 0.66536,-0.22428 0.66544,-0.22211 0.66545,-0.21984 0.66536,-0.21759 0.66544,-0.2155 0.66545,-0.21333 0.66536,-0.21124 0.66545,-0.20907 0.66544,-0.20707 0.66536,-0.2049 0.66545,-0.20299 0.66545,-0.2009 0.66536,-0.19891 0.66544,-0.1969 0.66545,-0.19491 0.66536,-0.19308 0.66544,-0.19109 0.66545,-0.18917 0.66536,-0.18726 0.66545,-0.18543 0.66544,-0.18361 0.66536,-0.18179 0.66545,-0.17996 0.66544,-0.17814 0.66536,-0.17639 0.66545,-0.17466 0.66545,-0.17284 0.66536,-0.17118 0.66544,-0.16945 0.66536,-0.1678 0.66545,-0.16614 0.66545,-0.16441 0.66535,-0.16284 0.66545,-0.16119 0.66545,-0.15954 0.66536,-0.15806 0.66544,-0.15642 0.66545,-0.15484 0.66536,-0.15329 0.66545,-0.1518 0.66544,-0.15033 0.66536,-0.14877 0.66545,-0.14729 0.66544,-0.14581 0.66536,-0.14442 0.66545,-0.14294 0.66545,-0.14155 0.66536,-0.14008 0.66544,-0.13877 0.66545,-0.1373 0.66536,-0.13599 0.66544,-0.1346 0.66545,-0.1333 0.66536,-0.1319 0.66545,-0.13061 0.66544,-0.12939 0.66536,-0.12799 0.66545,-0.12678 0.66545,-0.12548 0.66536,-0.12426 0.66544,-0.12305 0.66545,-0.12182 0.66536,-0.12053 0.66544,-0.11939 0.66545,-0.11818 0.66536,-0.11705 0.66545,-0.11583 0.66536,-0.1147 0.66544,-0.11349 0.66545,-0.11244 0.66536,-0.11131 0.66544,-0.11019 0.66545,-0.10905 0.66536,-0.10801 0.66545,-0.10697 0.66544,-0.10584 0.66536,-0.1048 0.66545,-0.10384 0.66545,-0.10271 0.66536,-0.10167 0.66544,-0.10071 0.66545,-0.0998 0.66536,-0.0986 0.66544,-0.0978 0.66545,-0.0967 0.66536,-0.0958 0.66545,-0.0948 0.66544,-0.0939 0.66536,-0.093 0.66545,-0.092 0.66544,-0.0911 0.66536,-0.0902 0.66545,-0.0893 0.66545,-0.0884 0.66536,-0.0876 0.66544,-0.0866 0.66545,-0.0858 0.66536,-0.085 0.66545,-0.0841 0.66544,-0.0832 0.66536,-0.0824 0.66545,-0.0816 0.66536,-0.0808 0.66544,-0.08 0.66545,-0.0792 0.66536,-0.0784 0.66545,-0.0777 0.66544,-0.0768 0.66536,-0.0761 0.66545,-0.0753 0.66544,-0.0746 0.66536,-0.0738 0.66545,-0.0732 0.66545,-0.0723 0.66536,-0.0717 0.66544,-0.0709 0.66545,-0.0702 0.66536,-0.0696 0.66544,-0.0688 0.66545,-0.0681 0.66536,-0.0675 0.66545,-0.0667 0.66544,-0.0661 0.66536,-0.0655 0.66545,-0.0648 0.66545,-0.0641 0.66536,-0.0636 0.66544,-0.0629 0.66545,-0.0622 0.66536,-0.0617 0.66544,-0.061 0.66545,-0.0605 0.66536,-0.0599 0.66545,-0.0592 0.66544,-0.0587 0.66536,-0.058 0.66545,-0.0575 0.66545,-0.0569 0.66535,-0.0563 0.66545,-0.0558 0.66536,-0.0553 0.66545,-0.0547 0.66544,-0.0541 0.66545,-0.0536 0.66536,-0.0531 0.66545,-0.0525 0.66536,-0.0521 0.66544,-0.0514 0.66545,-0.051 0.66536,-0.0505 0.66544,-0.05 0.66545,-0.0495 0.66536,-0.049 0.66545,-0.0485 0.66544,-0.048 0.66536,-0.0475 0.66545,-0.047 0.66544,-0.0466 0.66536,-0.0461 0.66545,-0.0456 0.66545,-0.0453 0.66536,-0.0447 0.66544,-0.0443 0.66545,-0.0439 0.66536,-0.0435 0.66545,-0.0429 0.66544,-0.0426 0.66536,-0.0421 0.66545,-0.0418 0.66544,-0.0413 0.66536,-0.0409 0.66545,-0.0405 0.66545,-0.0401 0.66536,-0.0397 0.66544,-0.0393 0.66545,-0.0389 0.66536,-0.0385 0.66544,-0.0382 0.66536,-0.0378 0.66545,-0.0374 0.66545,-0.037 0.66536,-0.0366 0.66544,-0.0363 0.66545,-0.0359 0.66536,-0.0355 0.66544,-0.0352 0.66545,-0.0349 0.66536,-0.0345 0.66545,-0.0341 0.66544,-0.0338 0.66536,-0.0335 0.66545,-0.0332 0.66545,-0.0328 0.66536,-0.0325 0.66544,-0.0321 0.66545,-0.0319 0.66536,-0.0315 0.66544,-0.0312 0.66545,-0.0309 0.66536,-0.0306 0.66545,-0.0302 0.66544,-0.0301 0.66536,-0.0296 0.66545,-0.0295 0.66545,-0.0291 0.66535,-0.0288 0.66545,-0.0285 0.66545,-0.0282 0.66536,-0.028 0.66544,-0.0277 0.66545,-0.0274 0.66536,-0.0271 0.66545,-0.0269 0.66544,-0.0266 0.66536,-0.0263 0.66545,-0.0261 0.66536,-0.0258 0.66544,-0.0256 0.66545,-0.0253 0.66536,-0.025 0.66545,-0.0249 0.66544,-0.0245 0.66536,-0.0243 0.66545,-0.0241 0.66544,-0.0238 0.66536,-0.0236 0.66545,-0.0234 0.66545,-0.0231 0.66536,-0.0229 0.66544,-0.0226 0.66545,-0.0224 0.66536,-0.0222 0.66545,-0.022 0.66544,-0.0218 0.66536,-0.0215 0.66545,-0.0213 0.66544,-0.0211 0.66536,-0.0209 0.66545,-0.0207 0.66545,-0.0205 0.66536,-0.0203 0.66544,-0.0201 0.66545,-0.0199 0.66536,-0.0197 0.66544,-0.0195 0.66545,-0.0194 0.66536,-0.019 0.66545,-0.0189 0.66544,-0.0188 0.66536,-0.0185 0.66545,-0.0184 0.66536,-0.0182 0.66545,-0.018 0.66544,-0.0178 0.66536,-0.0176 0.66545,-0.0175 0.66544,-0.0173 0.66536,-0.0171 0.66545,-0.0169 0.66545,-0.0168 0.66536,-0.0167 0.66544,-0.0164 0.66545,-0.0162 0.66536,-0.0162 0.66544,-0.016 0.66545,-0.0158 0.66536,-0.0156 0.66545,-0.0155 0.66544,-0.0153 0.66536,-0.0152 0.66545,-0.015 0.66545,-0.0149 0.66535,-0.0148 0.66545,-0.0146 0.66545,-0.0144 0.66536,-0.0143 0.66544,-0.0141 0.66545,-0.0141 0.66536,-0.0138 0.66545,-0.0138 0.66544,-0.0136 0.66536,-0.0135 0.66545,-0.0133 0.66544,-0.0132 0.66536,-0.0131 0.66545,-0.013 0.66545,-0.0128 0.66536,-0.0127 0.66544,-0.0125 0.66536,-0.0124 0.66545,-0.0123 0.66544,-0.0122 0.66536,-0.0121 0.66545,-0.0119 0.66545,-0.0118 0.66536,-0.0117 0.66544,-0.0116 0.66545,-0.0115 0.66536,-0.0113 0.66545,-0.0113 0.66544,-0.0111 0.66536,-0.011 0.66545,-0.0109 0.66544,-0.0109 0.66536,-0.0107 0.66545,-0.0106 0.66545,-0.0104 0.66536,-0.0104 0.66544,-0.0103 0.66545,-0.0102 0.66536,-0.0101 0.66544,-0.01 0.66545,-0.01 0.66536,-0.01 0.66545,-0.01 0.66544,-0.01 0.66536,-0.01 0.66545,-0.009 0.66545,-0.009 0.66536,-0.009 0.66544,-0.009 0.66545,-0.009 0.66536,-0.009 0.66544,-0.009 0.66545,-0.009 0.66536,-0.009 0.66545,-0.009 0.66536,-0.009 0.66544,-0.009 0.66545,-0.009 0.66536,-0.009 0.66544,-0.008 0.66545,-0.008 0.66536,-0.008 0.66545,-0.008 0.66544,-0.008 0.66536,-0.008 0.66545,-0.008 0.66545,-0.008 0.66535,-0.008 0.66545,-0.008 0.66545,-0.007 0.66536,-0.007 0.66544,-0.007 0.66545,-0.007 0.66536,-0.007 0.66545,-0.007 0.66544,-0.007 0.66536,-0.007 0.66545,-0.007 0.66544,-0.007 0.66536,-0.007 0.66545,-0.007 0.66545,-0.007 0.66536,-0.006 0.66544,-0.006 0.66545,-0.006 0.66536,-0.006 0.66544,-0.006 0.66545,-0.006"
     id="path14"
     sodipodi:nodetypes="cccccccccccccccccccccccccccccccccccccccccccccccccccccccccccccccccccccccccccccccccccccccccccccccccccccccccccccccccccccccccccccccccccccccccccccccccccccccccccccccccccccccccccccccccccccccccccccccccccccccccccccccccccccccccccccccccccccccccccccccccccccccccccccccccccccccccccccccccccccccccccccccccccccccccccccccccccccccccccccccccccccccccccccccccccccccccccccccccccccccccccccccccccccccccccccccccccccccccccccccccccccccccccccccccccccccccccccccccccccccccccccccccccccccccccccccccccccccccccccccccccccccccccccccccccccccccccccccccccccccccccccccccccccccccccccccccccccccccccccccccccccccccccc" /></g><g
   inkscape:groupmode="layer"
   id="layer2"
   inkscape:label="fid"
   style="display:inline"
   sodipodi:insensitive="true"><g
     id="g20"
     style="fill:none;stroke:#0000ff;stroke-width:9.20645142;stroke-linecap:butt;stroke-linejoin:miter;stroke-miterlimit:4;stroke-dasharray:none"
     transform="matrix(0.86895584,0,0,-0.86895584,-78.539965,456.06067)">
   <path
   id="path22"
   d="m 94.987525,303.88273 0.7658,21.1925 0.7657,20.5602 0.7658,19.7347 0.7658,18.728 0.7657,17.5537 0.7658,16.2271 0.765805,14.7641 0.7657,13.1825 0.7658,11.5002 0.7658,9.7361 0.7657,7.9095 0.7658,6.0399 0.7658,4.147 0.7657,2.25 0.7658,0.3681 0.7658,-1.4802 0.7657,-3.277 0.7658,-5.0055 0.7657,-6.6494 0.7658,-8.1944 0.7658,-9.6266 0.7657,-10.934 0.7658,-12.1062 0.7658,-13.1338 0.7657,-14.0096 0.7658,-14.7278 0.7658,-15.2843 0.7657,-15.6768 0.7658,-15.9045 0.7658,-15.9686 0.7657,-15.8714 0.7658,-15.6173 0.7658,-15.212 0.7657,-14.6623 0.7658,-13.9768 0.7658,-13.1649 0.7657,-12.2373 0.7658,-11.2056 0.7658,-10.0821 0.7657,-8.8801 0.7658,-7.6129 0.7658,-6.2946 0.7657,-4.9394 0.7658,-3.5618 0.7658,-2.1756 0.7657,-0.7952 0.7658,0.5658 0.7658,1.8942 0.7657,3.1772 0.7658,4.4031 0.7658,5.5605 0.7657,6.6394 0.7658,7.6303 0.7658,8.5254 0.7657,9.3172 0.7658,10.0001 0.7657,10.5693 0.7658,11.0216 0.7658,11.3543 0.7657,11.567 0.7658,11.6596 0.7658,11.6335 0.7657,11.4917 0.7658,11.2375 0.7658,10.8758 0.7657,10.4125 0.7658,9.8541 0.7658,9.2082 0.7657,8.4828 0.7658,7.6869 0.7658,6.8298 0.7657,5.9213 0.7658,4.9716 0.7658,3.9909 0.7657,2.9897 0.7658,1.9784 0.7658,0.9674 0.7657,-0.0333 0.7658,-1.0139 0.7658,-1.9648 0.7657,-2.8772 0.7658,-3.7428 0.7658,-4.5536 0.7657,-5.3029 0.7658,-5.9842 0.7658,-6.5922 0.7657,-7.1219 0.7658,-7.57 0.7658,-7.9335 0.7657,-8.2101 0.7658,-8.3993 0.7658,-8.5004 0.7657,-8.5147 0.7658,-8.4432 0.7657,-8.2888 0.7658,-8.0543 0.7658,-7.744 0.7657,-7.3622 0.7658,-6.9143 0.7658,-6.406 0.7657,-5.8437 0.7658,-5.2341 0.7658,-4.584 0.7657,-3.9011 0.7658,-3.1926 0.7658,-2.4662 0.7657,-1.7294 0.7658,-0.99 0.7658,-0.2554 0.7657,0.4674 0.7658,1.171 0.7658,1.849 0.7657,2.495 0.7658,3.1034 0.7658,3.6684 0.7657,4.1857 0.7658,4.6508 0.7658,5.06 0.7657,5.4105 0.7658,5.7 0.7658,5.9265 0.7657,6.0894 0.7658,6.1879 0.7658,6.2226 0.7657,6.1943 0.7658,6.1046 0.7658,5.9555 0.7657,5.7497 0.7658,5.4905 0.7657,5.1815 0.7658,4.8266 0.7658,4.4306 0.7657,3.9979 0.7658,3.5339 0.7658,3.0437 0.7657,2.5327 0.7658,2.0065 0.7658,1.4707 0.7657,0.9306 0.7658,0.3921 0.7658,-0.1397 0.7657,-0.6597 0.7658,-1.1626 0.7658,-1.644 0.7657,-2.0994 0.7658,-2.5247 0.7658,-2.9163 0.7657,-3.271 0.7658,-3.5859 0.7658,-3.8586 0.7657,-4.0873 0.7658,-4.2707 0.7658,-4.4075 0.7657,-4.4975 0.7658,-4.5407 0.7658,-4.5377 0.7657,-4.4892 0.7658,-4.3968 0.7658,-4.2622 0.7657,-4.0875 0.7658,-3.8755 0.7658,-3.6288 0.7657,-3.3507 0.7658,-3.0445 0.7658,-2.714 0.7657,-2.3628 0.7658,-1.9949 0.7658,-1.6144 0.7657,-1.2253 0.7658,-0.8315 0.7657,-0.4372 0.7658,-0.0465 0.7658,0.3371 0.7657,0.7096 0.7658,1.0676 0.7658,1.408 0.7657,1.7273 0.7658,2.0232 0.7658,2.2929 0.7657,2.5342 0.7658,2.7455 0.7658,2.9251 0.7657,3.0718 0.7658,3.1848 0.7658,3.2638 0.7657,3.3084 0.7658,3.3192 0.7658,3.2964 0.7657,3.2411 0.7658,3.1545 0.7658,3.0379 0.7657,2.8933 0.7658,2.7226 0.7658,2.5281 0.7657,2.3119 0.7658,2.0771 0.7658,1.826 0.7657,1.5617 0.7658,1.287 0.7658,1.0047 0.7657,0.7181 0.7658,0.43 0.7657,0.1432 0.7658,-0.1393 0.7658,-0.4148 0.7658,-0.6806 0.7657,-0.9345 0.7658,-1.1739 0.7657,-1.3968 0.7658,-1.6014 0.7658,-1.7857 0.7657,-1.9487 0.7658,-2.0888 0.7658,-2.2054 0.7657,-2.2973 0.7658,-2.3647 0.7658,-2.4069 0.7657,-2.4243 0.7658,-2.4169 0.7658,-2.3856 0.7657,-2.331 0.7658,-2.2542 0.7658,-2.1562 0.7657,-2.0387 0.7658,-1.9031 0.7658,-1.7511 0.7657,-1.5846 0.7658,-1.4055 0.7658,-1.2159 0.7657,-1.0179 0.7658,-0.8136 0.7658,-0.6053 0.7657,-0.3949 0.7658,-0.1849 0.7658,0.0229 0.7657,0.2263 0.7658,0.4234 0.7658,0.6124 0.7657,0.7916 0.7658,0.9591 0.7657,1.1139 0.7658,1.2543 0.7658,1.3795 0.7657,1.4883 0.7658,1.5802 0.7658,1.6543 0.7657,1.7104 0.7658,1.7483 0.7658,1.768 0.7657,1.7695 0.7658,1.7533 0.7658,1.7198 0.7657,1.6699 0.7658,1.6042 0.7658,1.5237 0.7657,1.4296 0.7658,1.323 0.7658,1.2053 0.7657,1.0779 0.7658,0.9422 0.7658,0.7997 0.7657,0.6521 0.7658,0.5008 0.7658,0.3476 0.7657,0.194 0.7658,0.0413 0.7658,-0.1086 0.7657,-0.2546 0.7658,-0.395 0.7658,-0.5288 0.7657,-0.6545 0.7658,-0.7713 0.7658,-0.878 0.7657,-0.9738 0.7658,-1.058 0.7658,-1.1299 0.7657,-1.189 0.7658,-1.2351 0.7657,-1.2679 0.7658,-1.2874 0.7658,-1.2935 0.7657,-1.2867 0.7658,-1.2671 0.7658,-1.2351 0.7657,-1.1915 0.7658,-1.1367 0.7658,-1.0717 0.7657,-0.9973 0.7658,-0.9143 0.7658,-0.8239 0.7657,-0.7269 0.7658,-0.6246 0.7658,-0.5181 0.7657,-0.4086 0.7658,-0.297 0.7658,-0.1848 0.7657,-0.0729 0.7658,0.0376 0.7658,0.1453 0.7657,0.2496 0.7658,0.3493 0.7658,0.4435 0.7657,0.5314 0.7658,0.6122 0.7658,0.6854 0.7657,0.7501 0.7658,0.8062 0.7658,0.8529 0.7657,0.8904 0.7658,0.918 0.7658,0.936 0.7657,0.9442 0.7658,0.9428 0.7657,0.9321 0.7658,0.9121 0.7658,0.8835 0.7657,0.8466 0.7658,0.8019 0.7658,0.7501 0.7657,0.6918 0.7658,0.6278 0.7658,0.5586 0.7657,0.4854 0.7658,0.4087 0.7658,0.3294 0.7657,0.2483 0.7658,0.1665 0.7658,0.0846 0.7657,0.003 0.7658,-0.0761 0.7658,-0.1534 0.7657,-0.2276 0.7658,-0.298 0.7658,-0.364 0.7657,-0.4251 0.7658,-0.4808 0.7658,-0.5304 0.7657,-0.5739 0.7658,-0.6106 0.7658,-0.6407 0.7657,-0.6636 0.7658,-0.6794 0.7658,-0.6882 0.7657,-0.6899 0.7658,-0.6846 0.7658,-0.6726 0.7657,-0.654 0.7658,-0.6294 0.7658,-0.5989 0.7657,-0.5631 0.7658,-0.5222 0.7657,-0.4769 0.7658,-0.4279 0.7658,-0.3754 0.7658,-0.3203 0.7657,-0.263 0.7658,-0.2043 0.7657,-0.1446 0.7658,-0.0848 0.7658,-0.0252 0.7657,0.0335 0.7658,0.0906 0.7658,0.1456 0.7657,0.1983 0.7658,0.2477 0.7658,0.2938 0.7657,0.336 0.7658,0.374 0.7658,0.4076 0.7657,0.4362 0.7658,0.4601 0.7658,0.4789 0.7657,0.4924 0.7658,0.5008 0.7658,0.504 0.7657,0.5021 0.7658,0.4953 0.7658,0.4835 0.7657,0.4671 0.7658,0.4465 0.7658,0.4218 0.7657,0.3932 0.7658,0.3615 0.7658,0.3266 0.7657,0.2892 0.7658,0.2496 0.7658,0.2084 0.7657,0.1658 0.7658,0.1224 0.7657,0.0787 0.7658,0.0351 0.7658,-0.008 0.7657,-0.0502 0.7658,-0.0912 0.7658,-0.1302 0.7657,-0.1674 0.7658,-0.202 0.7658,-0.2339 0.7657,-0.2629 0.7658,-0.2886 0.7658,-0.311 0.7657,-0.3298 0.7658,-0.3449 0.7658,-0.3563 0.7657,-0.3639 0.7658,-0.3677 0.7658,-0.3677 0.7657,-0.3641 0.7658,-0.3568 0.7658,-0.3462 0.7657,-0.3323 0.7658,-0.3153 0.7658,-0.2956 0.7657,-0.2732 0.7658,-0.2486 0.7658,-0.2219 0.7657,-0.1936 0.7658,-0.1639 0.7658,-0.1332 0.7657,-0.1016 0.7658,-0.0698 0.7658,-0.0379 0.7657,-0.006 0.7658,0.0249 0.7658,0.0553 0.7657,0.0843 0.7658,0.112 0.7657,0.138 0.7658,0.1621 0.7658,0.1842 0.7657,0.2039 0.7658,0.2211 0.7658,0.236 0.7657,0.248 0.7658,0.2574 0.7658,0.2639 0.7657,0.2679 0.7658,0.2688 0.7658,0.2673 0.7657,0.263 0.7658,0.2561 0.7658,0.2469 0.7657,0.2353 0.7658,0.2217 0.7658,0.206 0.7657,0.1887 0.7658,0.1697 0.7658,0.1495 0.7657,0.1282 0.7658,0.106 0.7658,0.0831 0.7657,0.0599 0.7658,0.0366 0.7658,0.0134 0.7657,-0.01 0.7658,-0.0319 0.7658,-0.0535 0.7657,-0.0742 0.7658,-0.0936 0.7658,-0.1119 0.7657,-0.1285 0.7658,-0.1435 0.7657,-0.157 0.7658,-0.1684 0.7658,-0.1779 0.7657,-0.1856 0.7658,-0.1912 0.7658,-0.1948 0.7657,-0.1964 0.7658,-0.1958 0.7658,-0.1935 0.7657,-0.1893 0.7658,-0.1831 0.7658,-0.1753 0.7657,-0.1659 0.7658,-0.1551 0.7658,-0.1428 0.7657,-0.1294 0.7658,-0.115 0.7658,-0.0997 0.7657,-0.0837 0.7658,-0.0672 0.7658,-0.0503 0.7657,-0.0333 0.7658,-0.0162 0.7658,6e-4 0.7657,0.017 0.7658,0.0332 0.7658,0.0484 0.7657,0.0631 0.7658,0.0767 0.7658,0.0893 0.7657,0.1008 0.7658,0.111 0.7658,0.1199 0.7657,0.1275 0.7658,0.1336 0.7658,0.1382 0.7657,0.1415 0.7658,0.1431 0.7657,0.1434 0.7658,0.1422 0.7658,0.1395 0.7657,0.1356 0.7658,0.1304 0.7658,0.124 0.7657,0.1164 0.7658,0.1079 0.7658,0.0984 0.7657,0.0881 0.7658,0.0772 0.7658,0.0656 0.7657,0.0538 0.7658,0.0415 0.7658,0.0291 0.7657,0.0166 0.7658,0.004 0.7658,-0.008 0.7657,-0.0197 0.7658,-0.0311 0.7658,-0.0421 0.7657,-0.0522 0.7658,-0.0618 0.7658,-0.0705 0.7657,-0.0783 0.7658,-0.0853 0.7658,-0.0911 0.7657,-0.096 0.7658,-0.0998 0.7658,-0.1025 0.7657,-0.1042 0.7658,-0.1048 0.7658,-0.1043 0.7657,-0.1028 0.7658,-0.1003 0.7658,-0.0968 0.7657,-0.0924 0.7658,-0.0873 0.7657,-0.0812 0.7658,-0.0746 0.7658,-0.0673 0.7657,-0.0595 0.7658,-0.0513 0.7658,-0.0426 0.7657,-0.0338 0.7658,-0.0247 0.7658,-0.0157 0.7657,-0.007 0.7658,0.002 0.7658,0.0111 0.7657,0.0196 0.7658,0.0277 0.7658,0.0354 0.7657,0.0425 0.7658,0.0491 0.7658,0.0551 0.7657,0.0604 0.7658,0.0649 0.7658,0.0689 0.7657,0.0719 0.7658,0.0742 0.7658,0.0757 0.7657,0.0765 0.7658,0.0764 0.7658,0.0756 0.7657,0.074 0.7658,0.0718 0.7658,0.0688 0.7657,0.0653 0.7658,0.0611 0.7658,0.0564 0.7657,0.0513"
   style="stroke:#000092;stroke-width:9.20645142;stroke-miterlimit:4;stroke-opacity:1;stroke-dasharray:none"
   sodipodi:nodetypes="ccccccccccccccccccccccccccccccccccccccccccccccccccccccccccccccccccccccccccccccccccccccccccccccccccccccccccccccccccccccccccccccccccccccccccccccccccccccccccccccccccccccccccccccccccccccccccccccccccccccccccccccccccccccccccccccccccccccccccccccccccccccccccccccccccccccccccccccccccccccccccccccccccccccccccccccccccccccccccccccccccccccccccccccccccccccccccccccccccccccccccccccccccccccccccccccccccccccccccccccccccccccccccccccccccccccccccccccccccccccccccccccccccccccccccccccccccccccccccccccccccccccccccccccccccccccccccccccccccccccccccccccccccccccccccccccccccccccccccccccccccccccccccccc" />
  </g></g></svg>