<?xml version="1.0" encoding="UTF-8" standalone="no"?>
<svg
   xmlns:dc="http://purl.org/dc/elements/1.1/"
   xmlns:cc="http://creativecommons.org/ns#"
   xmlns:rdf="http://www.w3.org/1999/02/22-rdf-syntax-ns#"
   xmlns:svg="http://www.w3.org/2000/svg"
   xmlns="http://www.w3.org/2000/svg"
   xmlns:sodipodi="http://sodipodi.sourceforge.net/DTD/sodipodi-0.dtd"
   xmlns:inkscape="http://www.inkscape.org/namespaces/inkscape"
   width="250"
   version="1.1"
   height="250"
   viewBox="0 0 200 200"
   id="svg2"
   inkscape:version="0.48.1 r9760"
   sodipodi:docname="structure.svg"
   inkscape:export-filename="structure.png"
   inkscape:export-xdpi="46.080002"
   inkscape:export-ydpi="46.080002">
  <metadata
     id="metadata64">
    <rdf:RDF>
      <cc:Work
         rdf:about="">
        <dc:format>image/svg+xml</dc:format>
        <dc:type
           rdf:resource="http://purl.org/dc/dcmitype/StillImage" />
        <dc:title></dc:title>
      </cc:Work>
    </rdf:RDF>
  </metadata>
  <sodipodi:namedview
     pagecolor="#ffffff"
     bordercolor="#666666"
     borderopacity="1"
     objecttolerance="10"
     gridtolerance="10"
     guidetolerance="10"
     inkscape:pageopacity="0"
     inkscape:pageshadow="2"
     inkscape:window-width="893"
     inkscape:window-height="675"
     id="namedview62"
     showgrid="false"
     inkscape:zoom="1.2235294"
     inkscape:cx="125"
     inkscape:cy="106.25"
     inkscape:window-x="0"
     inkscape:window-y="0"
     inkscape:window-maximized="0"
     inkscape:current-layer="svg2" />
  <defs
     id="defs4">
    <clipPath
       id="Clip0">
      <path
         d="m 0,0 190,0 0,161.097 -190,0 L 0,0 z"
         transform="translate(4.3203,3.403)"
         id="path7"
         inkscape:connector-curvature="0" />
    </clipPath>
  </defs>
  <g
     id="Background"
     transform="translate(0,15.6)">
    <g
       clip-path="url(#Clip0)"
       id="g10">
      <path
         style="fill:#161413;fill-rule:evenodd;stroke:none"
         d="m 12.4844,11.5181 2.1848,0.582 c -0.4619,1.8973 -1.2909,3.2853 -2.4869,4.264 -1.1973,1.0488 -2.65544,1.4656 -4.38453,1.4656 -1.89014,0 -3.24221,-0.3767 -4.36455,-1.1339 C 2.31461,16.0049 1.46317,14.846 0.877655,13.4105 0.207241,11.9862 0,10.4317 0,8.78595 0,7.08383 0.32834,5.42426 0.985021,4.08759 1.62922,2.84855 2.58303,1.73591 3.79901,1.0413 5.00001,0.415518 6.35707,0 7.81774,0 c 1.6492,0.102628 3.04496,0.438046 4.17476,1.31038 1.0874,0.95369 1.9189,2.09511 2.3646,3.67208 L 12.1723,5.51562 C 11.7853,4.28534 11.2235,3.32539 10.4907,2.74842 9.6954,2.18898 8.83647,1.87734 7.72536,1.87734 6.36581,1.97997 5.37454,2.19899 4.51561,2.84104 3.60925,3.57821 3.05369,4.34542 2.70662,5.42676 2.28839,6.57319 2.18477,7.62075 2.18477,8.77093 c 0,1.58327 0.206,2.77717 0.61923,3.88237 0.31336,1.1614 1.06118,1.9311 1.93633,2.4781 0.85893,0.6132 1.82647,0.821 2.8477,0.821 1.20599,0 2.28715,-0.3705 3.14607,-1.1139 0.8202,-0.6871 1.4445,-1.8536 1.7503,-3.3204 z"
         transform="translate(91.5111,3.403)"
         id="path12"
         inkscape:connector-curvature="0" />
      <path
         style="fill:#161413;fill-rule:evenodd;stroke:none"
         d="M 0,17.2039 0,0 l 2.18477,0 0,7.19146 9.05123,0 0,-7.19146 2.1848,0 0,17.2039 -2.1848,0 0,-8.1351 -9.05123,0 0,8.1351 -2.18477,0 z"
         transform="translate(111.911,3.71589)"
         id="path14"
         inkscape:connector-curvature="0" />
      <path
         style="fill:#161413;fill-rule:evenodd;stroke:none"
         d="M 0,9.07381 1.56055,8.76092 c 0.17603,0.77596 0.44694,1.33418 0.81523,1.67708 0.30712,0.4093 0.90887,0.5131 1.61923,0.5131 0.73783,0 1.45444,-0.2252 1.89639,-0.6745 C 6.24221,9.84352 6.55432,9.26905 6.55432,8.60447 6.55432,8.02125 6.32586,7.44303 5.86768,7.025 5.32585,6.66205 4.82648,6.39422 4.12111,6.39422 3.81024,6.45304 3.47317,6.45304 3.0437,6.57069 L 3.21474,5.00624 C 3.2834,5.02001 3.39576,5.02501 3.45818,5.02501 4.08365,5.12389 4.66293,4.87858 5.1698,4.58571 5.61799,4.32914 5.9301,3.84229 5.9301,3.23653 5.9301,2.82352 5.73659,2.35544 5.35082,2.03879 4.94758,1.77346 4.46443,1.56445 3.85269,1.56445 3.21224,1.56445 2.74283,1.74718 2.33708,2.11138 1.88265,2.50312 1.67416,3.02502 1.56055,3.75468 L 0,3.44179 C 0.188515,2.35043 0.617979,1.50437 1.28839,0.904878 1.94757,0.31289 2.79776,0 3.79901,0 4.46817,0 5.11736,0.141426 5.69664,0.42553 6.2522,0.772212 6.72161,1.09011 7.02748,1.57947 7.28216,2.1677 7.49065,2.58572 7.49065,3.13391 c 0,0.62452 -0.14856,0.99749 -0.4432,1.42677 -0.3558,0.47184 -0.73408,0.76721 -1.31211,1.01752 0.71411,0.18774 1.33833,0.5219 1.75531,1.05632 0.41573,0.61451 0.62422,1.19774 0.62422,1.99874 0,1.12515 -0.39451,2.00004 -1.18477,2.75344 -0.80774,0.816 -1.78402,1.1289 -2.98877,1.1289 -1.15481,0 -1.99376,-0.3192 -2.71161,-0.9587 C 0.411986,10.9249 0.0998754,10.0901 0,9.07381 z"
         transform="translate(128.952,13.9624)"
         id="path16"
         inkscape:connector-curvature="0" />
      <path
         style="fill:none;stroke:#000000;stroke-width:1.49998999;stroke-linecap:round;stroke-linejoin:miter;stroke-dasharray:none"
         d="M 0,0 0,34.6932"
         transform="translate(68.9892,65.5267)"
         id="path18"
         inkscape:connector-curvature="0" />
      <path
         style="fill:none;stroke:#000000;stroke-width:1.49998999;stroke-linecap:round;stroke-linejoin:miter;stroke-dasharray:none"
         d="M 0,0 0,25.9811"
         transform="translate(75.1316,69.8821)"
         id="path20"
         inkscape:connector-curvature="0" />
      <path
         style="fill:none;stroke:#000000;stroke-width:1.49998999;stroke-linecap:round;stroke-linejoin:miter;stroke-dasharray:none"
         d="M 0,0 29.663,17.2715"
         transform="translate(68.9892,100.22)"
         id="path22"
         inkscape:connector-curvature="0" />
      <path
         style="fill:none;stroke:#000000;stroke-width:1.49998999;stroke-linecap:round;stroke-linejoin:miter;stroke-dasharray:none"
         d="M 0,17.2715 29.9626,0"
         transform="translate(98.6522,100.22)"
         id="path24"
         inkscape:connector-curvature="0" />
      <path
         style="fill:none;stroke:#000000;stroke-width:1.49998999;stroke-linecap:round;stroke-linejoin:miter;stroke-dasharray:none"
         d="M 0,12.9173 22.472,0"
         transform="translate(99.2514,97.0647)"
         id="path26"
         inkscape:connector-curvature="0" />
      <path
         style="fill:none;stroke:#000000;stroke-width:1.49998999;stroke-linecap:round;stroke-linejoin:miter;stroke-dasharray:none"
         d="M 0,34.8434 0,0"
         transform="translate(128.615,65.3765)"
         id="path28"
         inkscape:connector-curvature="0" />
      <path
         style="fill:none;stroke:#000000;stroke-width:1.49998999;stroke-linecap:round;stroke-linejoin:miter;stroke-dasharray:none"
         d="M 29.9626,17.2715 0,0"
         transform="translate(98.6522,48.105)"
         id="path30"
         inkscape:connector-curvature="0" />
      <path
         style="fill:none;stroke:#000000;stroke-width:1.49998999;stroke-linecap:round;stroke-linejoin:miter;stroke-dasharray:none"
         d="M 22.472,12.9173 0,0"
         transform="translate(99.2514,55.7632)"
         id="path32"
         inkscape:connector-curvature="0" />
      <path
         style="fill:none;stroke:#000000;stroke-width:1.49998999;stroke-linecap:round;stroke-linejoin:miter;stroke-dasharray:none"
         d="M 29.663,0 0,17.4217"
         transform="translate(68.9892,48.105)"
         id="path34"
         inkscape:connector-curvature="0" />
      <path
         style="fill:none;stroke:#000000;stroke-width:1.49998999;stroke-linecap:round;stroke-linejoin:miter;stroke-dasharray:none"
         d="M 0,23.279 0,0"
         transform="translate(98.6522,24.8259)"
         id="path36"
         inkscape:connector-curvature="0" />
      <path
         style="fill:#161413;fill-rule:evenodd;stroke:none"
         d="M 0,17.2039 0,0 2.33583,0 11.231,13.5519 11.231,0 l 2.1848,0 0,17.2039 -2.3359,0 -8.89513,-13.55686 0,13.55686 -2.18477,0 z"
         transform="translate(151.911,37.508)"
         id="path38"
         inkscape:connector-curvature="0" />
      <path
         style="fill:#161413;fill-rule:evenodd;stroke:none"
         d="M 0,9.14264 C 0,6.36043 0.741574,4.04254 2.22348,2.42552 3.69664,0.833539 5.62423,0 7.9688,0 c 1.47941,0.102628 2.9176,0.380474 4.1498,1.13892 1.1486,0.79599 2.1761,1.81977 2.824,3.17896 0.5556,1.37797 0.97,2.90112 0.97,4.62451 -0.1023,1.78971 -0.3408,3.31161 -1.0237,4.69331 -0.754,1.4218 -1.6429,2.4231 -2.8914,3.1339 -1.2959,0.7472 -2.59548,1.0601 -4.03868,1.0601 -1.61923,0 -2.9688,-0.3905 -4.20351,-1.1727 C 2.51936,15.9499 1.58802,14.8009 0.951313,13.4455 0.31211,12.0901 0,10.6558 0,9.14264 z m 2.18477,0.0338 c 0,2.16896 0.54807,3.75346 1.6442,4.96246 1.06742,1.2928 2.46817,1.8135 4.11986,1.8135 1.62922,0 3.05997,-0.6083 4.14607,-1.8285 1.01,-1.134 1.633,-2.955 1.633,-5.20153 C 13.6255,7.55316 13.4957,6.26781 13.0312,5.21149 12.4869,4.18772 11.8852,3.33165 10.9875,2.74842 10.0724,2.18522 9.09115,1.87233 7.98379,1.87233 c -1.6442,0 -2.94633,0.56195 -4.0874,1.6821 C 2.70413,4.74091 2.18477,6.55066 2.18477,9.17644 z"
         transform="translate(168.448,37.1951)"
         id="path40"
         inkscape:connector-curvature="0" />
      <path
         style="fill:#161413;fill-rule:evenodd;stroke:none"
         d="m 9.06494,11.5769 0,1.5645 -9.0512071,0 C 0,12.7534 0.0674159,12.3817 0.213484,12.0262 0.377029,11.4956 0.815233,10.8698 1.32959,10.3254 1.82023,9.78094 2.57179,9.16517 3.51436,8.47681 4.95132,7.37169 6.00376,6.35041 6.60176,5.69585 7.19227,5.12138 7.50438,4.38922 7.50438,3.74967 7.50438,3.13891 7.24845,2.61951 6.73909,2.20024 6.17355,1.87734 5.56805,1.56445 4.74907,1.56445 3.86642,1.56445 3.19102,1.78598 2.67167,2.22903 2.10113,2.7647 1.89264,3.28534 1.8864,4.06757 L 0.325843,3.75468 C 0.443197,2.53191 0.887642,1.602 1.66168,0.962449 2.40949,0.418021 3.47816,0 4.78278,0 c 1.28964,0 2.3633,0.351688 3.13109,1.05506 0.73409,0.77097 1.15107,1.57697 1.15107,2.61576 0,0.55695 -0.11486,1.04881 -0.34208,1.55945 C 8.40326,5.77219 8.12361,6.28158 7.59677,6.84853 7.04246,7.42425 6.23347,8.17143 5.07991,9.12262 4.04745,9.99996 3.4045,10.4468 3.07616,10.7309 2.66667,11.0851 2.4819,11.2928 2.27092,11.5769 l 6.79402,0 z"
         transform="translate(185.255,46.9786)"
         id="path42"
         inkscape:connector-curvature="0" />
      <path
         style="fill:none;stroke:#000000;stroke-width:1.49998999;stroke-linecap:round;stroke-linejoin:miter;stroke-dasharray:none"
         d="M 0,10.6645 18.1274,0"
         transform="translate(128.615,54.7119)"
         id="path44"
         inkscape:connector-curvature="0" />
      <path
         style="fill:#161413;fill-rule:evenodd;stroke:none"
         d="M 0,17.2039 0,0 2.33583,0 11.231,13.5519 11.231,0 l 2.1848,0 0,17.2039 -2.3359,0 -8.89513,-13.55686 0,13.55686 -2.18477,0 z"
         transform="translate(92.1353,141.739)"
         id="path46"
         inkscape:connector-curvature="0" />
      <path
         style="fill:#161413;fill-rule:evenodd;stroke:none"
         d="M 0,9.14139 C 0,6.36043 0.741574,4.04129 2.22472,2.42427 3.69664,0.833539 5.62423,0 7.9688,0 c 1.47941,0.102628 2.9176,0.379223 4.1498,1.13892 1.1486,0.79474 2.1761,1.81852 2.824,3.17771 0.5556,1.37797 0.97,2.90111 0.97,4.62451 -0.1023,1.78976 -0.3408,3.31286 -1.0237,4.69336 -0.7528,1.4218 -1.6429,2.4243 -2.8914,3.1339 -1.2946,0.7484 -2.59424,1.0613 -4.03868,1.0613 -1.61923,0 -2.9688,-0.3917 -4.20351,-1.1739 C 2.51936,15.9499 1.58802,14.8009 0.951313,13.4443 0.31211,12.0901 0,10.6545 0,9.14139 z m 2.18477,0.03505 c 0,2.16766 0.54807,3.75346 1.6442,4.96116 1.06742,1.2941 2.46817,1.8148 4.11986,1.8148 1.62922,0 3.05997,-0.6095 4.14607,-1.8285 1.01,-1.134 1.633,-2.9562 1.633,-5.20153 C 13.6255,7.55316 13.4957,6.26656 13.0312,5.21149 12.4869,4.18647 11.8852,3.33165 10.9875,2.74717 10.0724,2.18522 9.0924,1.87233 7.98379,1.87233 c -1.6442,0 -2.94633,0.5607 -4.0874,1.68085 C 2.70413,4.74091 2.18477,6.54941 2.18477,9.17644 z"
         transform="translate(108.672,141.426)"
         id="path48"
         inkscape:connector-curvature="0" />
      <path
         style="fill:#161413;fill-rule:evenodd;stroke:none"
         d="m 9.06494,11.5769 0,1.5645 -9.0512071,0 C 0,12.7546 0.0674159,12.3829 0.213484,12.0262 0.377029,11.4968 0.816481,10.871 1.33084,10.3254 1.82023,9.78219 2.57179,9.16517 3.51561,8.47806 4.95132,7.37294 6.00376,6.35041 6.60176,5.69585 7.19227,5.12138 7.50438,4.38922 7.50438,3.74967 7.50438,3.13891 7.24845,2.62077 6.73909,2.20024 6.17479,1.87734 5.56805,1.56445 4.74907,1.56445 3.86642,1.56445 3.19102,1.78723 2.67167,2.22903 2.10113,2.7647 1.89264,3.28534 1.8864,4.06757 L 0.325843,3.75468 C 0.443197,2.53316 0.887642,1.602 1.66168,0.963701 2.40949,0.418021 3.47816,0 4.78278,0 c 1.29089,0 2.3633,0.351688 3.13109,1.05632 0.73409,0.76971 1.15107,1.57696 1.15107,2.61576 0,0.55569 -0.11486,1.0488 -0.34083,1.55944 C 8.40451,5.77219 8.12361,6.28283 7.59677,6.84979 7.04246,7.4255 6.23347,8.17143 5.08116,9.12262 4.04745,9.99996 3.4045,10.448 3.07616,10.7309 c -0.40949,0.3554 -0.59301,0.5632 -0.804,0.846 l 6.79278,0 z"
         transform="translate(125.63,151.359)"
         id="path50"
         inkscape:connector-curvature="0" />
      <path
         style="fill:none;stroke:#000000;stroke-width:1.49998999;stroke-linecap:round;stroke-linejoin:miter;stroke-dasharray:none"
         d="M 0,0 0,20.2753"
         transform="translate(98.6522,117.491)"
         id="path52"
         inkscape:connector-curvature="0" />
      <path
         style="fill:#161413;fill-rule:evenodd;stroke:none"
         d="M 0,9.14139 C 0,6.36043 0.741325,4.04129 2.22385,2.42427 3.69664,0.833539 5.62411,0 7.96856,0 c 1.4789,0.102628 2.91764,0.379223 4.15024,1.13892 1.1484,0.79474 2.1767,1.81852 2.8234,3.17771 0.5556,1.37797 0.9701,2.90111 0.9701,4.62451 -0.1024,1.78976 -0.3409,3.31286 -1.0238,4.69336 -0.7528,1.4218 -1.6433,2.4243 -2.8917,3.1339 -1.2948,0.7484 -2.59441,1.0613 -4.03798,1.0613 -1.61898,0 -2.96867,-0.3917 -4.20376,-1.1739 C 2.51886,15.9499 1.58739,14.8009 0.951063,13.4443 0.31211,12.0901 0,10.6545 0,9.14139 z m 2.18477,0.03505 c 0,2.16766 0.54745,3.75346 1.64345,4.96116 1.06804,1.2941 2.46892,1.8148 4.12086,1.8148 1.62884,0 3.05892,-0.6095 4.14522,-1.8285 1.0107,-1.1352 1.6332,-2.9562 1.6332,-5.20278 C 13.6251,7.55316 13.4953,6.26656 13.0306,5.21149 12.4869,4.18647 11.8847,3.33165 10.9873,2.74717 10.0717,2.18522 9.09153,1.87233 7.98329,1.87233 6.33984,1.87233 5.03771,2.43303 3.89651,3.55318 2.70425,4.74091 2.18477,6.54941 2.18477,9.17644 z"
         transform="translate(4.3203,37.4967)"
         id="path54"
         inkscape:connector-curvature="0" />
      <path
         style="fill:#161413;fill-rule:evenodd;stroke:none"
         d="m 9.06369,11.5769 0,1.5645 -9.0512056,0 C 0,12.7546 0.0661674,12.3829 0.213484,12.0262 0.375781,11.4968 0.815233,10.871 1.32959,10.3254 1.82023,9.78219 2.57054,9.16517 3.51436,8.47806 4.95007,7.37294 6.00251,6.35041 6.60176,5.69585 7.19103,5.12138 7.50314,4.38922 7.50314,3.74967 7.50314,3.13891 7.24721,2.62077 6.73784,2.20024 6.17355,1.87734 5.56805,1.56445 4.74782,1.56445 3.86518,1.56445 3.18977,1.78723 2.67042,2.22903 2.09988,2.7647 1.89139,3.28534 1.88515,4.06757 L 0.324595,3.75468 C 0.441948,2.53316 0.887642,1.602 1.66168,0.963701 2.40824,0.418021 3.47816,0 4.78278,0 c 1.28964,0 2.36205,0.351688 3.13109,1.05632 0.73284,0.76971 1.14982,1.57696 1.14982,2.61576 0,0.55569 -0.11361,1.0488 -0.34083,1.55944 C 8.40326,5.77219 8.12236,6.28283 7.59677,6.84979 7.04121,7.4255 6.23347,8.17143 5.07991,9.12262 4.04745,9.99996 3.40325,10.448 3.07616,10.7309 2.66542,11.0863 2.4819,11.2941 2.27092,11.5769 l 6.79277,0 z"
         transform="translate(21.2113,47.4291)"
         id="path56"
         inkscape:connector-curvature="0" />
      <path
         style="fill:#161413;fill-rule:evenodd;stroke:none"
         d="M 0,17.2039 0,0 2.33583,0 11.231,13.5519 11.231,0 l 2.1848,0 0,17.2039 -2.3359,0 -8.89513,-13.55686 0,13.55686 -2.18477,0 z"
         transform="translate(33.7082,37.8096)"
         id="path58"
         inkscape:connector-curvature="0" />
      <path
         style="fill:none;stroke:#000000;stroke-width:1.49998999;stroke-linecap:round;stroke-linejoin:miter;stroke-dasharray:none"
         d="M 19.4744,11.264 0,0"
         transform="translate(49.5148,54.2626)"
         id="path60"
         inkscape:connector-curvature="0" />
    </g>
  </g>
</svg>
